<svg width="100" height="100" viewBox="0 0 100 100" fill="none" xmlns="http://www.w3.org/2000/svg">
  <path d="M1.22541 61.5228c-.2225-.9485.19998-1.9403.91585-2.5013L59.0892 12.4371c.7159-.5853 1.7472-.5853 2.4631 0l11.3082 9.2509c.9579.7837.9579 2.2278 0 3.0115L16.1571 71.2839c-.5609.4589-1.2857.6279-1.9694.459L1.22541 61.5228z" fill="#5E6AD2"/>
  <path d="M22.6225 97.2546c-.9485.2224-1.9403-.2-2.5013-.9159L.870605 39.395c-.585303-.7159-.585303-1.7471 0-2.4631l9.250895-11.3082c.7837-.9579 2.2278-.9579 3.0115 0l46.5848 56.9473c.4589.5608.6279 1.2857.459 1.9693l-10.2201 12.9623c-.2224.9485-1.2-.2204-1.9159.7159l-26.4191-3.0132z" fill="#5E6AD2"/>
  <path d="M74.4814 98.5693c-2.2631.1765-4.1251-1.6854-3.9486-3.9486l2.8242-36.2213c.1328-1.7014 1.2953-3.1427 2.8986-3.5949l23.4168-6.6004c2.1958-.619 4.3282 1.0842 4.0178 3.3127l-5.0893 36.5542c-.231 1.66-1.4628 3.018-3.1018 3.4215l-21.0177 5.0768z" fill="#5E6AD2"/>
</svg>
